<?xml version="1.0" encoding="UTF-8"?>
<svg id="deviations" xmlns="http://www.w3.org/2000/svg" width="118.67mm" height="185.955mm" viewBox="0 0 336.387 527.116">
  <defs>
    <style>
      .cls-1, .cls-2, .cls-3, .cls-4 {
        fill: none;
      }

      .cls-1, .cls-5, .cls-6 {
        stroke-width: 0px;
      }

      .cls-2 {
        stroke: #b8b7b7;
        stroke-linecap: round;
        stroke-linejoin: round;
        stroke-width: 2px;
      }

      .cls-7 {
        fill: #c6c5c4;
        stroke: #c3c1c1;
      }

      .cls-3 {
        stroke: #010101;
        stroke-dasharray: 0 0 0 4;
      }

      .cls-3, .cls-4 {
        stroke-miterlimit: 10;
        stroke-width: .5px;
      }

      .cls-5 {
        fill: #b8b7b7;
      }

      .cls-6 {
        fill: #fff;
      }

      .cls-4 {
        stroke: #a9a9aa;
      }
    </style>
  </defs>
  <g id="horse-top">
    <g id="stroke_other" data-name="stroke other">
      <path class="cls-2" d="m162.613,223.289s-8.45,63.666,22.191,75.411"/>
      <path class="cls-2" d="m235.6,301.157s15.645-1.894,35.093-.054c16.486,1.559,27.727.909,44.767-1.203"/>
      <path class="cls-2" d="m172.335,233.608c-7.669-4.656-38.893-47.11-46.014-86.276s-24.376-31.8-24.376-31.8"/>
      <path class="cls-2" d="m94.54,33.001s34.894-4.611,87.844,47.096c52.719,51.483,55.773,44.285,76.517,48.289,20.744,4.004,23.655,17.105,45.855,19.652,3.278.376,6.873.76,10.705,1.109"/>
      <path class="cls-2" d="m104.794,49.116s17.547,40.87,7.165,56.758-25.483,11.955-47.349,28.787c-21.865,16.832-17.304,26.899-35.708,9.91"/>
      <path class="cls-2" d="m40.594,137.631s-19.109,15.287-25.479,0c-6.37-15.287.425-18.048,6.794-23.993,0,0,34.06-39.71,36.514-47.071,2.454-7.361,9.437-21.705,18.497-25.669"/>
      <path class="cls-2" d="m97.587,40.899s-5.294-15.626-9.773-19.291-7.465-8.823-7.465-8.823c0,0,2.986,15.745,1.357,22.125"/>
      <path class="cls-2" d="m72.507,43.725s.424-20.659-7.3-25.6c0,0,10.581,3.895,16.981,12.107"/>
    </g>
    <g id="eyes">
      <path class="cls-2" d="m72.404,71.729s2.976-4.871,10.002-2.889c.89.251,1.463,1.136,1.304,2.047-.27,1.555-1.712,3.739-7.462,4.392"/>
      <ellipse class="cls-5" cx="78.09" cy="71.75" rx="2.147" ry=".92" transform="translate(-18.635 28.272) rotate(-18.373)"/>
    </g>
  </g>
  <g id="ant-left">
    <g id="ant-Z">
      <g id="ant-A">
        <g id="ant-B">
          <g id="ant-C">
            <polygon id="ant-normal" class="cls-7" points="160.485 476.035 146.51 505.433 175.29 505.433 186.109 484.126 160.485 476.035"/>
            <polygon id="ant-ext-2" class="cls-1" points="155.869 480.121 183.777 481.829 184.229 492.912 149.272 501.833 155.869 480.121"/>
            <rect id="ant-mask-foot" class="cls-6" x="123.327" y="497.527" width="102.84" height="25.023"/>
            <circle id="ant-C-join" class="cls-1" cx="172.734" cy="480.121" r="4.202"/>
            <line id="ant-C-dash" class="cls-3" x1="167.042" y1="488.009" x2="163.42" y2="512.293"/>
            <line id="ant-C-dev" class="cls-1" x1="163.126" y1="514.269" x2="167.042" y2="488.009"/>
          </g>
          <path id="ant-B-fill" class="cls-6" d="m165.224,460.223s2.46,4.336-2.69,10.936c-3.376,4.326-2.049,4.876-2.049,4.876l25.624,8.091s-7.687-10.915-2.479-26.783l-18.406,2.88h0Z"/>
          <line id="ant-B-dev" class="cls-1" x1="172.395" y1="462.497" x2="172.734" y2="476.651"/>
          <path id="ant-B-stroke" class="cls-2" d="m163.421,459.248s2.537,3.639,1.106,8.966c-4.396,6.042-4.041,7.821-4.041,7.821l25.624,8.091s-7.715-10.213-2.09-29.141"/>
        </g>
        <path id="ant-A-fill" class="cls-6" d="m174.947,392.07s-5.467,46.781-8.077,49.398c-1.137,1.14-7.094,13.733-3.746,14.724,0,0,3.985.187,4.987,1.399.755.913,1.577,1.741,3.015,2.348,2.234.942,2.375,1.952,3.655,2.368,5.617,1.829,11.888-9.961,10.136-13.34s9.811-50.143,9.811-50.143l-19.782-6.755h0Z"/>
        <circle id="ant-B-join" class="cls-2" cx="172.395" cy="454.206" r="4.202"/>
        <line id="ant-B-dash" class="cls-3" x1="167.308" y1="460.934" x2="157.126" y2="471.159"/>
        <line id="ant-A-dev" class="cls-4" x1="186.102" y1="396.753" x2="174.174" y2="446.357"/>
        <g id="ant-A-stroke">
          <path class="cls-2" d="m174.947,392.07s-4.028,50.14-7.639,50.927c-4.201.917-7.08,12.81-3.887,16.251"/>
          <path class="cls-2" d="m194.729,398.825s-11.563,46.764-9.811,50.143-1.518,12.202-6.973,12.936"/>
        </g>
      </g>
      <path id="ant-Z-fill" class="cls-6" d="m179.91,266.622s-4.275,12.206.881,17.089.196,31.117-1.43,36.288c-1.626,5.171,1.105,28.929-1.672,35.698s-8.728,35.201,1.146,41.75c0,0,5.034-8.117,6.731-7.448,1.49.586,2.231.805,3.385,1.153,1.035.312,1.004,9.235,2.145,9.241,0,0,4.055,1.119,9.789-10.434,5.734-11.553,5.354-37.438,8.599-40.527,2.77-2.637,10.969-27.181,13.311-34.311.396-1.207,1.217-2.221,2.31-2.868,3.712-2.198,10.594-12.016,10.378-14.375-.769-8.401,8.317-15.908,8.317-15.908l-63.888-15.349h-.002Z"/>
      <circle id="ant-A-join" class="cls-2" cx="188.482" cy="386.981" r="4.202"/>
      <line id="ant-A-dash" class="cls-3" x1="186.102" y1="396.753" x2="174.459" y2="445.214"/>
      <line id="ant-Z-dev" class="cls-4" x1="210.424" y1="295.637" x2="190.959" y2="376.498"/>
      <g id="ant-Z-stroke">
        <path class="cls-2" d="m179.91,266.622s-4.275,12.206.881,17.089.196,31.117-1.43,36.288c-1.626,5.171,1.105,28.929-1.672,35.698s-8.728,35.201,1.146,41.75"/>
        <path class="cls-2" d="m243.798,281.971s-9.085,7.507-8.317,15.908c.216,2.359-6.666,12.177-10.378,14.375-1.093.647-1.914,1.661-2.31,2.868-2.342,7.131-10.541,31.675-13.311,34.311-3.245,3.089-2.865,28.974-8.599,40.527s-9.789,10.434-9.789,10.434"/>
      </g>
    </g>
    <circle id="ant-Z-join" class="cls-2" cx="213.045" cy="284.74" r="4.202"/>
    <polyline id="ant-thin" class="cls-4" points="182.897 510.749 213.013 461.356 213.013 284.74"/>
  </g>
</svg>