<?xml version="1.0" encoding="UTF-8"?>
<svg id="deviations" xmlns="http://www.w3.org/2000/svg" width="230.153mm" height="187.938mm" viewBox="0 0 652.403 532.739">
  <defs>
    <style>
      .cls-1, .cls-2, .cls-3, .cls-4, .cls-5 {
        fill: none;
      }

      .cls-1, .cls-6 {
        stroke-width: 0px;
      }

      .cls-2 {
        stroke: #010101;
        stroke-dasharray: 0 4;
      }

      .cls-2, .cls-4, .cls-5 {
        stroke-miterlimit: 10;
        stroke-width: .5px;
      }

      .cls-3 {
        stroke: #b8b7b7;
        stroke-linejoin: round;
        stroke-width: 2px;
      }

      .cls-3, .cls-7 {
        stroke-linecap: round;
      }

      .cls-7, .cls-8 {
        fill: #c6c5c4;
        stroke: #c3c1c1;
      }

      .cls-6 {
        fill: #b8b7b7;
      }

      .cls-4 {
        stroke: #a8a8a8;
      }

      .cls-5 {
        stroke: #a9a9aa;
      }
    </style>
  </defs>
  <g id="post-left">
    <g id="post-A">
      <g id="post-B">
        <g id="post-C">
          <path id="post-normal" class="cls-7" d="m513.153,490.64h35.623s5.222-6.419,7.568-7.223l-27.097-11.06s0-.614-16.094,18.283"/>
          <line id="post-C-dash" class="cls-2" x1="534.021" y1="483.416" x2="520.861" y2="503.236"/>
        </g>
        <line id="post-B-dev" class="cls-1" x1="549.615" y1="459.932" x2="540.966" y2="472.957"/>
        <path id="post-B-stroke" class="cls-3" d="m559.871,461.297s-8.518,9.636-4.386,14.66.859,7.459.859,7.459l-27.097-11.06s2.254-3.307,3.882-4.163c4.109-2.162,4.278-6.853,7.923-10.733"/>
      </g>
      <circle id="post-B-join" class="cls-3" cx="554.245" cy="453.258" r="4.202"/>
      <line id="post-B-dash" class="cls-2" x1="549.615" y1="459.932" x2="540.966" y2="472.957"/>
      <g id="post-A-stroke">
        <path class="cls-3" d="m543.853,384.074s5.547,3.061,3.966,16.948-1.334,40.119,0,42.69-7.239,4.801-7.067,11.487c0,0-.452,1.509,1.283,4.169"/>
        <path class="cls-3" d="m569.209,379.34s-5.83,59.015-3.171,65.44c2.548,6.156,2.391,15.849,3.076,20.784.01.07-.088.097-.113.032-.681-1.745-3.096-6.659-8.11-4.708-2.444.951-3.015,1.402-5.406,1.765"/>
      </g>
    </g>
    <circle id="post-A-join" class="cls-3" cx="554.245" cy="372.965" r="4.202"/>
    <line id="post-A-dash" class="cls-2" x1="554.046" y1="383.089" x2="554.046" y2="442.798"/>
    <line id="post-Z-dev" class="cls-1" x1="515.313" y1="319.149" x2="547.565" y2="363.961"/>
    <g id="post-stroke-0">
      <path class="cls-3" d="m445.659,252.564s8.425,6.48,10.369,19.117c1.802,11.716,72.841,73.997,74.094,89.033,0,0-1.096,7.048,3.759,11.121,4.855,4.072,6.951,13.134,12.07,12.294"/>
      <path class="cls-3" d="m539.74,264.622s-5.094,44.461,18.707,64.829c0,0,15.444,9.282,13.029,21.828-2.145,11.142-1.712,21.671-1.588,23.888.019.333.009.655-.031.986-.179,1.471-.856,5.502-3.072,7.92"/>
    </g>
    <polyline id="post-thin" class="cls-4" points="485.552 277.798 554.046 372.965 554.046 453.258 520.471 503.824"/>
  </g>
  <g id="ant-left">
    <g id="ant-A" transform="rotate(0 0 0)">
      <g id="ant-B">
        <g id="ant-C">
          <path id="ant-normal" class="cls-8" d="m202.739,470.659l-13.873,19.981h36.424s3.387-2.971,2.334-4.762-1.213-3.473-1.213-3.473l-23.673-11.746Z"/>
          <line id="ant-C-dash" class="cls-2" x1="209.965" y1="482.271" x2="197.183" y2="503.235"/>
        </g>
        <line id="ant-B-dev" class="cls-1" x1="222.979" y1="460.928" x2="215.467" y2="473.248"/>
        <path id="ant-B-stroke" class="cls-3" d="m216.334,454.866s-.947,6.744-7.347,10.6c-6.4,3.856-6.247,5.193-6.247,5.193l25.046,12.427s-6.022-9.954,6.625-23.715"/>
      </g>
      <circle id="ant-B-join" class="cls-3" cx="226.259" cy="454.866" r="4.202"/>
      <line id="ant-B-dash" class="cls-2" x1="222.979" y1="460.928" x2="215.467" y2="473.248"/>
      <g id="ant-A-stroke">
        <path class="cls-3" d="m214.319,392.184s5.612,46.764,3.686,49.918c-.839,1.374-2.943,13.662-.73,16.298"/>
        <path class="cls-3" d="m235.132,394.131s-.318,48.171,2.174,51.047c2.492,2.876-.832,15.338-6.74,15.338"/>
      </g>
    </g>
    <circle id="ant-A-join" class="cls-3" cx="226.291" cy="384.074" r="4.202"/>
    <line id="ant-A-dash" class="cls-2" x1="226.259" y1="394.131" x2="226.259" y2="443.972"/>
    <g id="ant-stroke-0">
      <path class="cls-3" d="m189.84,269.048s-1.305,12.867,4.849,16.411,7.459,30.21,7.086,35.619c-.373,5.408,7.832,27.871,6.713,35.101-1.119,7.231-.264,36.266,10.867,40.327"/>
      <path class="cls-3" d="m255.545,269.048s-7.08,9.421-4.37,17.411c.761,2.244-3.637,13.397-6.733,16.401-.911.884-1.473,2.062-1.576,3.328-.611,7.48-2.85,33.261-4.927,36.471-2.434,3.761,3.983,28.841,1.106,41.414s-7.08,12.432-7.08,12.432"/>
    </g>
    <polyline id="ant-thin" class="cls-5" points="196.143 504.94 226.259 455.547 226.259 278.931"/>
  </g>
  <g id="horse-top">
    <g id="stroke_other" data-name="stroke other">
      <path class="cls-3" d="m175.859,217.48s-8.45,63.666,22.191,75.411"/>
      <path class="cls-3" d="m248.846,295.348s15.645-1.894,35.093-.054c17.989,1.702,30.228.712,49.986-1.866,18.994-2.477,71.46-15.143,96.022-28.021,3.042-1.595,6.312-2.707,9.698-3.282,4.639-.787,10.121-1.038,14.146,1.708"/>
      <path class="cls-3" d="m185.581,227.799c-7.669-4.656-38.893-47.11-46.014-86.276s-24.376-31.8-24.376-31.8"/>
      <path class="cls-3" d="m107.786,27.193s34.894-4.611,87.844,47.096c52.719,51.483,55.773,44.285,76.517,48.289s23.655,17.105,45.855,19.652c22.2,2.547,58.956,5.459,85.523-4.731,26.567-10.19,78.244-28.245,137.201,7.167,58.956,35.412,14.557,94.005,0,128.942"/>
      <path class="cls-3" d="m543.992,146.725s20.862-5.656,39.554,14.233c0,0-10.544-4.553-8.627-1.438s50.665,2.727,60.416,186.161c.023.432-.485.686-.811.401l-1.914-1.671c-.629-.549-1.616-.226-1.799.588l-.88,5.526c-.146.915-1.415,1.031-1.725.158l-3.135-8.839c-.277-.781-1.409-.688-1.556.127l-1.049,5.826c-.138.768-1.161.941-1.545.262l-1.82-3.226c-.564-.999-1.995-1.022-2.591-.042l-1.084,1.784c-.647,1.064-2.156,1.157-2.928.181l-1.087-1.373c-.749-.946-1.145-2.115-1.121-3.321.33-16.223,1.335-134.674-38.287-174.82,0,0-.501.491-.785,1.441-.289.964-1.54,1.216-2.205.46-2.439-2.776-6.185-6.687-8.173-6.983"/>
      <path class="cls-3" d="m118.04,43.308s17.547,40.87,7.165,56.758c-10.382,15.888-25.483,11.955-47.349,28.787-21.865,16.832-17.304,26.899-35.708,9.91"/>
      <path class="cls-3" d="m53.84,131.823s-19.109,15.287-25.479,0c-6.37-15.287.425-18.048,6.794-23.993,0,0,34.06-39.71,36.514-47.071,2.454-7.361,9.437-21.705,18.497-25.669"/>
      <path class="cls-3" d="m110.833,35.09s-5.294-15.626-9.773-19.291c-4.479-3.665-7.465-8.823-7.465-8.823,0,0,2.986,15.745,1.357,22.125"/>
      <path class="cls-3" d="m85.753,37.917s.424-20.659-7.3-25.6c0,0,10.581,3.895,16.981,12.107"/>
    </g>
    <g id="eyes">
      <path class="cls-3" d="m85.65,65.92s2.976-4.871,10.002-2.889c.89.251,1.463,1.136,1.304,2.047-.27,1.555-1.712,3.739-7.462,4.392"/>
      <ellipse class="cls-6" cx="91.336" cy="65.941" rx="2.147" ry=".92" transform="translate(-16.129 32.151) rotate(-18.373)"/>
    </g>
  </g>
</svg>