<?xml version="1.0" encoding="UTF-8"?>
<svg id="deviations" xmlns="http://www.w3.org/2000/svg" width="336.387" height="527.116" viewBox="0 0 336.387 527.116">
  <defs>
    <style>
      .cls-1, .cls-2, .cls-3, .cls-4 {
        fill: none;
      }

      .cls-1, .cls-5, .cls-6 {
        stroke-width: 0px;
      }

      .cls-2 {
        stroke: #010101;
        stroke-dasharray: 0 4;
      }

      .cls-2, .cls-4 {
        stroke-miterlimit: 10;
        stroke-width: .5px;
      }

      .cls-3 {
        stroke: #b8b7b7;
        stroke-linecap: round;
        stroke-linejoin: round;
        stroke-width: 2px;
      }

      .cls-7 {
        fill: #c6c5c4;
        stroke: #c3c1c1;
      }

      .cls-5 {
        fill: #b8b7b7;
      }

      .cls-6 {
        fill: #fff;
      }

      .cls-4 {
        stroke: #a9a9aa;
      }
    </style>
  </defs>
  <g id="ant-left">
    <g id="ant-Z">
      <g id="ant-A">
        <g id="ant-B">
          <g id="ant-C">
            <polygon id="ant-normal" class="cls-7" points="192.41 471.122 157.167 498.578 188.674 501.903 200.97 493.952 192.41 471.122"/>
            <rect id="ant-mask-foot" class="cls-6" x="123.099" y="494.306" width="102.84" height="25.023" transform="translate(65.176 -17.935) rotate(7.23)"/>
            <circle id="ant-C-join" class="cls-1" cx="195.448" cy="482.883" r="4.202"/>
            <line id="ant-C-dash" class="cls-2" x1="188.205" y1="484.231" x2="163.933" y2="487.934"/>
            <line id="ant-C-dev" class="cls-1" x1="161.958" y1="488.235" x2="188.205" y2="484.231"/>
          </g>
          <path id="ant-B-fill" class="cls-6" d="m232.603,467.308s-5.772,3.614-12.842,1.196c-7.07-2.418-7.995-1.442-7.995-1.442l6.601,27.17s3.745-11.015,22.417-10.186l-8.181-16.737Z"/>
          <line id="ant-B-dev" class="cls-1" x1="231.46" y1="476.434" x2="217.973" y2="478.47"/>
          <path id="ant-B-stroke" class="cls-3" d="m218.803,469.315s-7.037,2.703-14.667,1.658c-7.403-1.014-11.726.149-11.726.149l8.559,22.83s3.062.021,5.11-3.58c3.146-5.533,15.102-7.352,30.795-1.258"/>
        </g>
        <path id="ant-A-fill" class="cls-6" d="m203.003,400.282s15.14,44.6,13.906,48.084c-.538,1.518-.061,13.976,2.648,16.098,0,0,3.967-2.732,5.392-2.067,1.073.501,2.171.896,3.73.827,2.422-.108,2.983.743,4.318.57,5.859-.759,6.462-14.099,3.43-16.399s-12.659-49.501-12.659-49.501l-20.766,2.389Z"/>
        <circle id="ant-B-join" class="cls-3" cx="231.211" cy="476.221" r="4.202"/>
        <line id="ant-B-dash" class="cls-2" x1="225.66" y1="465.76" x2="220.851" y2="479.364"/>
        <line id="ant-A-dev" class="cls-4" x1="215.088" y1="399.723" x2="225.605" y2="449.646"/>
        <g id="ant-A-stroke">
          <path class="cls-3" d="m203.003,400.282s18.126,63.785,16.893,67.269c-.538,1.518-3.574,5.012,0,10.63"/>
          <path class="cls-3" d="m223.77,397.893s13.181,69.122,16.214,71.422,2.671,18.58-3.11,19.799"/>
        </g>
      </g>
      <path id="ant-Z-fill" class="cls-6" d="m176.594,274.856s-1.305,12.867,4.849,16.411,7.459,30.21,7.086,35.619c-.373,5.408,7.832,27.871,6.713,35.101-1.119,7.231-.264,36.266,10.867,40.327,0,0,2.998-9.068,4.804-8.815,1.585.222,2.357.261,3.561.33,1.08.062,3.133,8.745,4.245,8.485,0,0,4.204.141,7.08-12.432s-3.54-37.653-1.106-41.414c2.078-3.211,4.316-28.991,4.927-36.471.103-1.266.665-2.444,1.576-3.328,3.096-3.004,7.494-14.158,6.733-16.401-2.71-7.989,4.37-17.411,4.37-17.411h-65.706Z"/>
      <circle id="ant-A-join" class="cls-3" cx="213.045" cy="389.882" r="4.202"/>
      <line id="ant-A-dash" class="cls-2" x1="213.013" y1="399.94" x2="213.013" y2="449.78"/>
      <line id="ant-Z-dev" class="cls-4" x1="213.042" y1="295.94" x2="213.004" y2="379.111"/>
      <g id="ant-Z-stroke">
        <path class="cls-3" d="m176.594,274.856s-1.305,12.867,4.849,16.411,7.459,30.21,7.086,35.619c-.373,5.408,7.832,27.871,6.713,35.101-1.119,7.231-.264,36.266,10.867,40.327"/>
        <path class="cls-3" d="m242.299,274.856s-7.08,9.421-4.37,17.411c.761,2.244-3.637,13.397-6.733,16.401-.911.884-1.473,2.062-1.576,3.328-.611,7.48-2.85,33.261-4.927,36.471-2.434,3.761,3.983,28.841,1.106,41.414s-7.08,12.432-7.08,12.432"/>
      </g>
    </g>
    <circle id="ant-Z-join" class="cls-3" cx="213.045" cy="284.74" r="4.202"/>
    <polyline id="ant-thin" class="cls-4" points="182.897 510.749 213.013 461.356 213.013 284.74"/>
  </g>
  <g id="horse-top">
    <g id="stroke_other" data-name="stroke other">
      <path class="cls-3" d="m162.613,223.289s-8.45,63.666,22.191,75.411"/>
      <path class="cls-3" d="m235.6,301.157s15.645-1.894,35.093-.054c16.486,1.559,27.727.909,44.767-1.203"/>
      <path class="cls-3" d="m172.335,233.608c-7.669-4.656-38.893-47.11-46.014-86.276s-24.376-31.8-24.376-31.8"/>
      <path class="cls-3" d="m94.54,33.001s34.894-4.611,87.844,47.096c52.719,51.483,55.773,44.285,76.517,48.289s23.655,17.105,45.855,19.652c3.278.376,6.873.76,10.705,1.109"/>
      <path class="cls-3" d="m104.794,49.116s17.547,40.87,7.165,56.758c-10.382,15.888-25.483,11.955-47.349,28.787-21.865,16.832-17.304,26.899-35.708,9.91"/>
      <path class="cls-3" d="m40.594,137.631s-19.109,15.287-25.479,0c-6.37-15.287.425-18.048,6.794-23.993,0,0,34.06-39.71,36.514-47.071,2.454-7.361,9.437-21.705,18.497-25.669"/>
      <path class="cls-3" d="m97.587,40.899s-5.294-15.626-9.773-19.291c-4.479-3.665-7.465-8.823-7.465-8.823,0,0,2.986,15.745,1.357,22.125"/>
      <path class="cls-3" d="m72.507,43.725s.424-20.659-7.3-25.6c0,0,10.581,3.895,16.981,12.107"/>
    </g>
    <g id="eyes">
      <path class="cls-3" d="m72.404,71.729s2.976-4.871,10.002-2.889c.89.251,1.463,1.136,1.304,2.047-.27,1.555-1.712,3.739-7.462,4.392"/>
      <ellipse class="cls-5" cx="78.09" cy="71.75" rx="2.147" ry=".92" transform="translate(-18.635 28.272) rotate(-18.373)"/>
    </g>
  </g>
</svg>