<?xml version="1.0" encoding="UTF-8"?>
<svg id="deviations" xmlns="http://www.w3.org/2000/svg" width="336.387" height="527.117" viewBox="0 0 336.387 527.117">
  <defs>
    <style>
      .cls-1 {
        stroke: #010101;
        stroke-dasharray: 0 0 0 0 0 0 0 4;
      }

      .cls-1, .cls-2, .cls-3, .cls-4 {
        fill: none;
      }

      .cls-1, .cls-4 {
        stroke-miterlimit: 10;
        stroke-width: .5px;
      }

      .cls-2, .cls-5, .cls-6 {
        stroke-width: 0px;
      }

      .cls-3 {
        stroke: #b8b7b7;
        stroke-linecap: round;
        stroke-linejoin: round;
        stroke-width: 2px;
      }

      .cls-7 {
        fill: #c6c5c4;
        stroke: #c3c1c1;
      }

      .cls-5 {
        fill: #b8b7b7;
      }

      .cls-6 {
        fill: #fff;
      }

      .cls-4 {
        stroke: #a9a9aa;
      }
    </style>
  </defs>
  <g id="horse-top">
    <g id="stroke_other" data-name="stroke other">
      <path class="cls-3" d="m162.613,223.289s-8.45,63.666,22.191,75.411"/>
      <path class="cls-3" d="m235.6,301.157s15.645-1.894,35.093-.054c16.486,1.559,27.727.909,44.767-1.203"/>
      <path class="cls-3" d="m172.335,233.608c-7.669-4.656-38.893-47.11-46.014-86.276s-24.376-31.8-24.376-31.8"/>
      <path class="cls-3" d="m94.54,33.001s34.894-4.611,87.844,47.096c52.719,51.483,55.773,44.285,76.517,48.289,20.744,4.004,23.655,17.105,45.855,19.652,3.278.376,6.873.76,10.705,1.109"/>
      <path class="cls-3" d="m104.794,49.116s17.547,40.87,7.165,56.758-25.483,11.955-47.349,28.787c-21.865,16.832-17.304,26.899-35.708,9.91"/>
      <path class="cls-3" d="m40.594,137.631s-19.109,15.287-25.479,0c-6.37-15.287.425-18.048,6.794-23.993,0,0,34.06-39.71,36.514-47.071,2.454-7.361,9.437-21.705,18.497-25.669"/>
      <path class="cls-3" d="m97.587,40.899s-5.294-15.626-9.773-19.291-7.465-8.823-7.465-8.823c0,0,2.986,15.745,1.357,22.125"/>
      <path class="cls-3" d="m72.507,43.725s.424-20.659-7.3-25.6c0,0,10.581,3.895,16.981,12.107"/>
    </g>
    <g id="eyes">
      <path class="cls-3" d="m72.404,71.729s2.976-4.871,10.002-2.889c.89.251,1.463,1.136,1.304,2.047-.27,1.555-1.712,3.739-7.462,4.392"/>
      <ellipse class="cls-5" cx="78.09" cy="71.75" rx="2.147" ry=".92" transform="translate(-18.635 28.272) rotate(-18.373)"/>
    </g>
  </g>
  <g id="ant-left">
    <g id="ant-Z">
      <g id="ant-A">
        <g id="ant-B">
          <g id="ant-C">
            <path id="ant-normal" class="cls-7" d="m189.493,476.468l-23.59,34.718h39.637l8.999-22.291-.971-3.12-21.387-12.149-2.689,2.842Z"/>
            <polygon id="ant-ext-2" class="cls-2" points="189.493 476.468 214.54 488.895 210.645 499.282 174.971 493.904 189.493 476.468"/>
            <rect id="ant-mask-foot" class="cls-6" x="145.62" y="496.449" width="102.84" height="30.667"/>
            <line id="ant-C-dash" class="cls-1" x1="196.719" y1="488.08" x2="183.937" y2="509.043"/>
            <line id="ant-C-dev" class="cls-2" x1="182.897" y1="510.749" x2="196.719" y2="488.08"/>
          </g>
          <path id="ant-B-fill" class="cls-6" d="m203.088,460.675s-.947,6.744-7.347,10.6c-6.4,3.856-6.247,5.193-6.247,5.193l25.046,12.427s-6.022-9.954,6.625-23.715l-18.077-4.506h0Z"/>
          <line id="ant-B-dev" class="cls-2" x1="209.339" y1="467.421" x2="202.221" y2="479.056"/>
          <path id="ant-B-stroke" class="cls-3" d="m203.088,460.675s-.947,6.744-7.347,10.6c-6.4,3.856-6.247,5.193-6.247,5.193l25.046,12.427s-6.022-9.954,6.625-23.715"/>
          <circle id="ant-C-join" class="cls-3" cx="199.411" cy="481.573" r="4.202"/>
        </g>
        <path id="ant-A-fill" class="cls-6" d="m201.073,397.993s5.612,46.764,3.686,49.918c-.839,1.374-2.943,13.662-.73,16.298,0,0,4.445-1.855,5.703-.91.947.711,1.94,1.325,3.48,1.578,2.392.394,2.765,1.343,4.108,1.449,5.889.466,9.232-12.462,6.74-15.338-2.492-2.876-2.174-51.047-2.174-51.047l-20.813-1.947h0Z"/>
        <circle id="ant-B-join" class="cls-3" cx="213.013" cy="457.675" r="4.202"/>
        <line id="ant-B-dash" class="cls-1" x1="209.733" y1="466.736" x2="203.932" y2="476.251"/>
        <line id="ant-A-dev" class="cls-4" x1="213.013" y1="399.94" x2="213.003" y2="450.958"/>
        <g id="ant-A-stroke">
          <path class="cls-3" d="m201.073,397.993s5.612,46.764,3.686,49.918c-.839,1.374-4.162,13.966,1.218,17.7"/>
          <path class="cls-3" d="m221.886,399.94s-.318,48.171,2.174,51.047c2.492,2.876-.832,15.338-6.74,15.338"/>
        </g>
      </g>
      <path id="ant-Z-fill" class="cls-6" d="m176.594,274.856s-1.305,12.867,4.849,16.411,7.459,30.21,7.086,35.619c-.373,5.408,7.832,27.871,6.713,35.101-1.119,7.231-.264,36.266,10.867,40.327,0,0,2.998-9.068,4.804-8.815,1.585.222,2.357.261,3.561.33,1.08.062,3.133,8.745,4.245,8.485,0,0,4.204.141,7.08-12.432s-3.54-37.653-1.106-41.414c2.078-3.211,4.316-28.991,4.927-36.471.103-1.266.665-2.444,1.576-3.328,3.096-3.004,7.494-14.158,6.733-16.401-2.71-7.989,4.37-17.411,4.37-17.411h-65.706.001Z"/>
      <circle id="ant-A-join" class="cls-3" cx="213.045" cy="389.882" r="4.202"/>
      <line id="ant-A-dash" class="cls-1" x1="213.013" y1="399.94" x2="213.013" y2="449.78"/>
      <line id="ant-A-dev-top" class="cls-4" x1="213.042" y1="295.94" x2="213.004" y2="379.111"/>
      <g id="ant-Z-stroke">
        <path class="cls-3" d="m176.594,274.856s-1.305,12.867,4.849,16.411,7.459,30.21,7.086,35.619c-.373,5.408,7.832,27.871,6.713,35.101-1.119,7.231-.264,36.266,10.867,40.327"/>
        <path class="cls-3" d="m242.299,274.856s-7.08,9.421-4.37,17.411c.761,2.244-3.637,13.397-6.733,16.401-.911.884-1.473,2.062-1.576,3.328-.611,7.48-2.85,33.261-4.927,36.471-2.434,3.761,3.983,28.841,1.106,41.414s-7.08,12.432-7.08,12.432"/>
      </g>
    </g>
    <circle id="ant-Z-join" class="cls-2" cx="213.045" cy="284.74" r="4.202"/>
    <polyline id="ant-thin" class="cls-4" points="182.897 510.749 213.013 457.675 213.013 284.74"/>
  </g>
</svg>