<?xml version="1.0" encoding="UTF-8"?>
<svg id="deviations" xmlns="http://www.w3.org/2000/svg" width="118.67mm" height="185.955mm" viewBox="0 0 336.387 527.116">
  <defs>
    <style>
      .cls-1 {
        fill: #c4c4c3;
        stroke: #c1c0c0;
      }

      .cls-1, .cls-2 {
        stroke-linecap: round;
        stroke-linejoin: round;
      }

      .cls-3, .cls-4, .cls-2, .cls-5 {
        fill: none;
      }

      .cls-3, .cls-6 {
        stroke-width: 0px;
      }

      .cls-4 {
        stroke: #000;
        stroke-dasharray: 0 4;
      }

      .cls-4, .cls-5 {
        stroke-miterlimit: 10;
        stroke-width: .5px;
      }

      .cls-2 {
        stroke: #b7b6b6;
        stroke-width: 2px;
      }

      .cls-6 {
        fill: #fff;
      }

      .cls-5 {
        stroke: #a7a7a6;
      }
    </style>
  </defs>
  <g id="horse-top">
    <g id="stroke_other" data-name="stroke other">
      <path class="cls-2" d="m138.316,269.053c-4.025-2.745-9.508-2.495-14.146-1.708-3.386.575-6.657,1.687-9.698,3.282-10.608,5.562-26.42,11.084-42.493,15.762,0,0-38.846,10.736-52.7,12.311"/>
      <path class="cls-2" d="m225.249,278.827c14.557-34.937,58.956-93.529,0-128.942-58.956-35.412-110.634-17.357-137.201-7.167-5.627,2.158-11.71,3.729-18.016,4.839,0,0-37.156,4.222-50.754,1.54"/>
      <path class="cls-2" d="m228.516,151.944s20.862-5.656,39.554,14.233c0,0-10.544-4.553-8.627-1.438s50.665,2.727,60.416,186.161c.023.432-.485.686-.811.401l-1.914-1.671c-.629-.549-1.616-.226-1.799.588l-.88,5.526c-.146.915-1.415,1.031-1.725.158l-3.135-8.839c-.277-.781-1.409-.688-1.556.127l-1.049,5.826c-.138.768-1.161.941-1.545.262l-1.82-3.226c-.564-.999-1.995-1.022-2.591-.042l-1.084,1.784c-.647,1.064-2.156,1.157-2.928.181l-1.087-1.373c-.749-.946-1.145-2.115-1.121-3.321.33-16.223,1.335-134.674-38.287-174.82,0,0-.501.491-.785,1.441-.289.964-1.54,1.216-2.205.46-2.439-2.776-6.185-6.687-8.173-6.983"/>
    </g>
  </g>
  <g id="post-left">
    <g id="post-Z">
      <g id="post-A">
        <g id="post-B">
          <g id="post-C">
            <path id="post-normal" class="cls-1" d="m187.435,507.825h37.007s15.784-18.103,17.275-19.51l-26.311-12.858s-11.876,13.472-27.971,32.369"/>
            <rect id="post-mask-foot" class="cls-6" x="162.372" y="495.859" width="102.8" height="30.7"/>
            <line id="post-C-dash" class="cls-4" x1="218.545" y1="488.636" x2="205.385" y2="508.455"/>
            <line id="post-C-dev" class="cls-3" x1="219.377" y1="487.409" x2="204.995" y2="509.043"/>
          </g>
          <path id="post-B-fill" class="cls-6" d="m244.396,466.517s-8.518,9.636-4.386,14.66.859,7.459.859,7.459l-27.097-11.06s2.254-3.307,3.882-4.163c4.109-2.162,6.153-6.273,9.344-10.262l17.398,3.366Z"/>
          <line id="post-B-dev" class="cls-3" x1="234.139" y1="465.151" x2="225.491" y2="478.176"/>
          <path id="post-B-stroke" class="cls-2" d="m241.233,469.857s-3.677,6.25-1.223,11.32c2.834,5.855.859,7.459.859,7.459l-27.097-11.06s2.254-3.307,3.882-4.163c4.109-2.162,6.849-5.653,9.344-10.262"/>
          <circle id="post-C-join" class="cls-2" cx="223.288" cy="481.547" r="4.202"/>
        </g>
        <path id="post-A-fill" class="cls-6" d="m253.733,384.559s-7.772,59.478-5.113,65.904c2.548,6.156,4.333,15.386,5.018,20.321.01.07-.088.097-.113.032-.681-1.745-1.558-5.733-6.571-3.782-2.444.951-4.388,3.018-6.779,3.381,0,0,.072-6.376-3.373-7.734-2.29-.903-8.137,3.909-9.312,1.566-2.722-5.43,3.91-12.482,3.91-15.379,0-2.664,5.207,7.072.943-42.625-1.195-13.926-3.966-16.948-3.966-16.948l25.356-4.734Z"/>
        <circle id="post-B-join" class="cls-2" cx="238.77" cy="458.478" r="4.202"/>
        <line id="post-B-dash" class="cls-4" x1="234.139" y1="465.151" x2="225.491" y2="478.176"/>
        <line id="post-A-dev" class="cls-5" x1="238.57" y1="388.308" x2="238.57" y2="448.018"/>
        <g id="post-A-stroke">
          <path class="cls-2" d="m238.387,470.008c2.869.266,5.634-1.648,7.88-2.674,4.893-2.235,6.577,1.736,7.258,3.481.026.066.113.039.113-.032-.025-5.515-2.471-14.164-5.018-20.321-2.659-6.425,5.113-65.904,5.113-65.904"/>
          <path class="cls-2" d="m228.377,389.293c-.861-.033,3.455,2.944,3.966,16.948.509,13.968,3.237,37.128.116,42.236-1.511,2.472-10.145,12.399-2.006,19.046"/>
        </g>
      </g>
      <path id="post-Z-fill" class="cls-6" d="m130.183,257.783s8.425,6.48,10.369,19.117c1.802,11.716,72.841,73.997,74.094,89.033,0,0-1.096,7.048,3.759,11.121,4.855,4.072,6.951,13.134,12.07,12.294l20.834-.055c2.216-2.418,2.893-6.449,3.072-7.92.04-.331.05-.653.031-.986-.124-2.217-.556-12.746,1.588-23.888,2.415-12.546-13.029-21.828-13.029-21.828-23.801-20.368-18.707-64.829-18.707-64.829l-94.081-12.059Z"/>
      <circle id="post-A-join" class="cls-2" cx="238.77" cy="378.184" r="4.202"/>
      <line id="post-A-dash" class="cls-4" x1="238.57" y1="388.308" x2="238.57" y2="448.018"/>
      <line id="post-A-dev-top" class="cls-3" x1="170.076" y1="283.018" x2="232.09" y2="369.18"/>
      <g id="post-Z-stroke">
        <path class="cls-2" d="m130.183,257.783s8.425,6.48,10.369,19.117c1.802,11.716,72.841,73.997,74.094,89.033,0,0-1.096,7.048,3.759,11.121,4.855,4.072,6.951,13.134,12.07,12.294"/>
        <path class="cls-2" d="m251.309,389.293c2.574-2.333,3.122-8.573,3.103-8.906-.124-2.217,7.617-20.391.835-29.487-7.472-10.02-15.961-21.906-21.315-35.069-12.392-30.466-8.613-44.852-8.613-44.852"/>
      </g>
    </g>
    <circle id="post-Z-join" class="cls-3" cx="170.076" cy="283.018" r="4.202"/>
    <polyline id="post-thin" class="cls-5" points="170.076 283.018 238.57 378.184 238.57 458.478 204.995 509.043"/>
  </g>
</svg>