<?xml version="1.0" encoding="utf-8"?>
<!-- Generator: Adobe Illustrator 28.0.0, SVG Export Plug-In . SVG Version: 6.00 Build 0)  -->
<svg version="1.1" id="deviations" xmlns="http://www.w3.org/2000/svg" xmlns:xlink="http://www.w3.org/1999/xlink" x="0px" y="0px"
	 viewBox="0 0 336.4 527.1" style="enable-background:new 0 0 336.4 527.1;" xml:space="preserve">
<style type="text/css">
	.st0{fill:none;stroke:#B8B7B7;stroke-width:2;stroke-linecap:round;stroke-linejoin:round;}
	.st1{fill:#B8B7B7;}
	.st2{fill:#C6C5C4;stroke:#C3C1C1;}
	.st3{fill:none;}
	.st4{fill:#FFFFFF;}
	.st5{fill:none;stroke:#010101;stroke-width:0.5;stroke-miterlimit:10;stroke-dasharray:0,0,0,4;}
	.st6{fill:none;stroke:#A9A9AA;stroke-width:0.5;stroke-miterlimit:10;}
</style>
<g id="horse-top">
	<g id="stroke_other">
		<path class="st0" d="M162.6,223.3c0,0-8.4,63.7,22.2,75.4"/>
		<path class="st0" d="M235.6,301.2c0,0,15.6-1.9,35.1-0.1c16.5,1.6,27.7,0.9,44.8-1.2"/>
		<path class="st0" d="M172.3,233.6c-7.7-4.7-38.9-47.1-46-86.3s-24.4-31.8-24.4-31.8"/>
		<path class="st0" d="M94.5,33c0,0,34.9-4.6,87.8,47.1c52.7,51.5,55.8,44.3,76.5,48.3c20.7,4,23.7,17.1,45.9,19.7
			c3.3,0.4,6.9,0.8,10.7,1.1"/>
		<path class="st0" d="M104.8,49.1c0,0,17.5,40.9,7.2,56.8s-25.5,12-47.3,28.8c-21.9,16.8-17.3,26.9-35.7,9.9"/>
		<path class="st0" d="M40.6,137.6c0,0-19.1,15.3-25.5,0s0.4-18,6.8-24c0,0,34.1-39.7,36.5-47.1c2.5-7.4,9.4-21.7,18.5-25.7"/>
		<path class="st0" d="M97.6,40.9c0,0-5.3-15.6-9.8-19.3s-7.5-8.8-7.5-8.8s3,15.7,1.4,22.1"/>
		<path class="st0" d="M72.5,43.7c0,0,0.4-20.7-7.3-25.6c0,0,10.6,3.9,17,12.1"/>
	</g>
	<g id="eyes">
		<path class="st0" d="M72.4,71.7c0,0,3-4.9,10-2.9c0.9,0.3,1.5,1.1,1.3,2c-0.3,1.6-1.7,3.7-7.5,4.4"/>
		<ellipse transform="matrix(0.949 -0.3152 0.3152 0.949 -18.6352 28.2716)" class="st1" cx="78.1" cy="71.8" rx="2.1" ry="0.9"/>
	</g>
</g>
<g id="ant-left">
	<g id="ant-Z">
		<g id="ant-A">
			<g id="ant-B">
				<g id="ant-C">
					<path id="ant-normal" class="st2" d="M189.5,476.5l-23.6,34.7h39.6l9-22.3l-1-3.1l-21.4-12.1L189.5,476.5z"/>
					<polygon id="ant-ext-2" class="st3" points="189.5,476.5 214.5,488.9 210.6,499.3 175,493.9 					"/>
					<rect id="ant-mask-foot" x="145.6" y="496.4" class="st4" width="102.8" height="30.7"/>
					<line id="ant-C-dash" class="st5" x1="196.7" y1="488.1" x2="183.9" y2="509"/>
					<line id="ant-C-dev" class="st3" x1="182.9" y1="510.7" x2="196.7" y2="488.1"/>
				</g>
				<path id="ant-B-fill" class="st4" d="M203.1,460.7c0,0-0.9,6.7-7.3,10.6c-6.4,3.9-6.2,5.2-6.2,5.2l25,12.4c0,0-6-10,6.6-23.7
					L203.1,460.7L203.1,460.7L203.1,460.7z"/>
				<line id="ant-B-dev" class="st3" x1="209.3" y1="467.4" x2="202.2" y2="479.1"/>
				<path id="ant-B-stroke" class="st0" d="M203.1,460.7c0,0-0.9,6.7-7.3,10.6c-6.4,3.9-6.2,5.2-6.2,5.2l25,12.4c0,0-6-10,6.6-23.7"
					/>
				<circle id="ant-C-join" class="st0" cx="199.4" cy="481.6" r="4.2"/>
			</g>
			<path id="ant-A-fill" class="st4" d="M201.1,398c0,0,5.6,46.8,3.7,49.9c-0.8,1.4-2.9,13.7-0.7,16.3c0,0,4.4-1.9,5.7-0.9
				c0.9,0.7,1.9,1.3,3.5,1.6c2.4,0.4,2.8,1.3,4.1,1.4c5.9,0.5,9.2-12.5,6.7-15.3c-2.5-2.9-2.2-51-2.2-51L201.1,398L201.1,398
				L201.1,398z"/>
			<circle id="ant-B-join" class="st0" cx="213" cy="457.7" r="4.2"/>
			<line id="ant-B-dash" class="st5" x1="209.7" y1="466.7" x2="203.9" y2="476.3"/>
			<line id="ant-A-dev" class="st6" x1="213" y1="399.9" x2="213" y2="451"/>
			<g id="ant-A-stroke">
				<path class="st0" d="M201.1,398c0,0,5.6,46.8,3.7,49.9c-0.8,1.4-4.2,14,1.2,17.7"/>
				<path class="st0" d="M221.9,399.9c0,0-0.3,48.2,2.2,51c2.5,2.9-0.8,15.3-6.7,15.3"/>
			</g>
		</g>
		<path id="ant-Z-fill" class="st4" d="M176.6,274.9c0,0-1.3,12.9,4.8,16.4s7.5,30.2,7.1,35.6c-0.4,5.4,7.8,27.9,6.7,35.1
			c-1.1,7.2-0.3,36.3,10.9,40.3c0,0,3-9.1,4.8-8.8c1.6,0.2,2.4,0.3,3.6,0.3c1.1,0.1,3.1,8.7,4.2,8.5c0,0,4.2,0.1,7.1-12.4
			s-3.5-37.7-1.1-41.4c2.1-3.2,4.3-29,4.9-36.5c0.1-1.3,0.7-2.4,1.6-3.3c3.1-3,7.5-14.2,6.7-16.4c-2.7-8,4.4-17.4,4.4-17.4
			L176.6,274.9L176.6,274.9L176.6,274.9z"/>
		<circle id="ant-A-join" class="st0" cx="213" cy="389.9" r="4.2"/>
		<line id="ant-A-dash" class="st5" x1="213" y1="399.9" x2="213" y2="449.8"/>
		<line id="ant-A-dev-top" class="st6" x1="213" y1="295.9" x2="213" y2="379.1"/>
		<g id="ant-Z-stroke">
			<path class="st0" d="M176.6,274.9c0,0-1.3,12.9,4.8,16.4s7.5,30.2,7.1,35.6c-0.4,5.4,7.8,27.9,6.7,35.1
				c-1.1,7.2-0.3,36.3,10.9,40.3"/>
			<path class="st0" d="M242.3,274.9c0,0-7.1,9.4-4.4,17.4c0.8,2.2-3.6,13.4-6.7,16.4c-0.9,0.9-1.5,2.1-1.6,3.3
				c-0.6,7.5-2.9,33.3-4.9,36.5c-2.4,3.8,4,28.8,1.1,41.4s-7.1,12.4-7.1,12.4"/>
		</g>
	</g>
	<circle id="ant-Z-join" class="st3" cx="213" cy="284.7" r="4.2"/>
	<polyline id="ant-thin" class="st6" points="182.9,510.7 213,457.7 213,284.7 	"/>
</g>
</svg>
