<?xml version="1.0" encoding="UTF-8"?>
<svg id="deviations" xmlns="http://www.w3.org/2000/svg" width="336.387" height="527.116" viewBox="0 0 336.387 527.116">
  <defs>
    <style>
      .cls-1, .cls-2, .cls-3, .cls-4 {
        fill: none;
      }

      .cls-1, .cls-5, .cls-6 {
        stroke-width: 0px;
      }

      .cls-2 {
        stroke: #010101;
        stroke-dasharray: 0 4;
      }

      .cls-2, .cls-4 {
        stroke-miterlimit: 10;
        stroke-width: .5px;
      }

      .cls-3 {
        stroke: #b8b7b7;
        stroke-linecap: round;
        stroke-linejoin: round;
        stroke-width: 2px;
      }

      .cls-7 {
        fill: #c6c5c4;
        stroke: #c3c1c1;
      }

      .cls-5 {
        fill: #b8b7b7;
      }

      .cls-6 {
        fill: #fff;
      }

      .cls-4 {
        stroke: #a9a9aa;
      }
    </style>
  </defs>
  <g id="ant-left">
    <g id="ant-Z">
      <g id="ant-A">
        <g id="ant-B">
          <g id="ant-C">
            <path id="ant-normal" class="cls-7" d="m189.493,476.468l-23.802,34.281h39.637s10.103-17.271,9.05-19.062-1.213-3.473-1.213-3.473l-23.673-11.746Z"/>
            <polygon id="ant-ext-2" class="cls-1" points="189.493 476.468 214.54 488.895 210.645 499.282 174.971 493.904 189.493 476.468"/>
            <rect id="ant-mask-foot" class="cls-6" x="145.62" y="496.449" width="102.84" height="25.023"/>
            <circle id="ant-C-join" class="cls-1" cx="200.347" cy="481.667" r="4.202"/>
            <line id="ant-C-dash" class="cls-2" x1="196.719" y1="488.08" x2="183.937" y2="509.043"/>
          </g>
          <line id="ant-B-dev" class="cls-1" x1="209.733" y1="466.736" x2="202.221" y2="479.056"/>
          <path id="ant-B-stroke" class="cls-3" d="m203.088,460.675s-.947,6.744-7.347,10.6c-6.4,3.856-6.247,5.193-6.247,5.193l25.046,12.427s-6.022-9.954,6.625-23.715"/>
        </g>
        <circle id="ant-B-join" class="cls-3" cx="213.013" cy="460.675" r="4.202"/>
        <line id="ant-B-dash" class="cls-2" x1="209.733" y1="466.736" x2="202.221" y2="479.056"/>
        <line id="ant-B-dev-top" class="cls-4" x1="213.013" y1="456.473" x2="213.013" y2="429.111"/>
        <line id="ant-A-dev" class="cls-4" x1="213.045" y1="394.084" x2="213.013" y2="424.86"/>
        <g id="ant-A-stroke">
          <path class="cls-3" d="m201.073,397.993s5.612,46.764,3.686,49.918c-.839,1.374-2.943,13.662-.73,16.298"/>
          <path class="cls-3" d="m221.886,399.94s-.318,48.171,2.174,51.047c2.492,2.876-.832,15.338-6.74,15.338"/>
        </g>
      </g>
      <circle id="ant-A-join" class="cls-3" cx="213.045" cy="389.882" r="4.202"/>
      <line id="ant-A-dash" class="cls-2" x1="213.013" y1="399.94" x2="213.013" y2="449.78"/>
      <line id="ant-A-dev-top" class="cls-4" x1="213.045" y1="385.68" x2="213.045" y2="334.249"/>
      <line id="ant-Z-dev" class="cls-4" x1="213.045" y1="288.942" x2="213.045" y2="329.437"/>
      <g id="ant-Z-stroke">
        <path class="cls-3" d="m176.594,274.856s-1.305,12.867,4.849,16.411,7.459,30.21,7.086,35.619c-.373,5.408,7.832,27.871,6.713,35.101-1.119,7.231-.264,36.266,10.867,40.327"/>
        <path class="cls-3" d="m242.299,274.856s-7.08,9.421-4.37,17.411c.761,2.244-3.637,13.397-6.733,16.401-.911.884-1.473,2.062-1.576,3.328-.611,7.48-2.85,33.261-4.927,36.471-2.434,3.761,3.983,28.841,1.106,41.414s-7.08,12.432-7.08,12.432"/>
      </g>
    </g>
    <circle id="ant-Z-join" class="cls-3" cx="213.045" cy="284.74" r="4.202"/>
    <polyline id="ant-thin" class="cls-4" points="182.897 510.749 213.013 461.356 213.013 284.74"/>
  </g>
  <g id="horse-top">
    <g id="stroke_other" data-name="stroke other">
      <path class="cls-3" d="m162.613,223.289s-8.45,63.666,22.191,75.411"/>
      <path class="cls-3" d="m235.6,301.157s15.645-1.894,35.093-.054c16.486,1.559,27.727.909,44.767-1.203"/>
      <path class="cls-3" d="m172.335,233.608c-7.669-4.656-38.893-47.11-46.014-86.276s-24.376-31.8-24.376-31.8"/>
      <path class="cls-3" d="m94.54,33.001s34.894-4.611,87.844,47.096c52.719,51.483,55.773,44.285,76.517,48.289s23.655,17.105,45.855,19.652c3.278.376,6.873.76,10.705,1.109"/>
      <path class="cls-3" d="m104.794,49.116s17.547,40.87,7.165,56.758c-10.382,15.888-25.483,11.955-47.349,28.787-21.865,16.832-17.304,26.899-35.708,9.91"/>
      <path class="cls-3" d="m40.594,137.631s-19.109,15.287-25.479,0c-6.37-15.287.425-18.048,6.794-23.993,0,0,34.06-39.71,36.514-47.071,2.454-7.361,9.437-21.705,18.497-25.669"/>
      <path class="cls-3" d="m97.587,40.899s-5.294-15.626-9.773-19.291c-4.479-3.665-7.465-8.823-7.465-8.823,0,0,2.986,15.745,1.357,22.125"/>
      <path class="cls-3" d="m72.507,43.725s.424-20.659-7.3-25.6c0,0,10.581,3.895,16.981,12.107"/>
    </g>
    <g id="eyes">
      <path class="cls-3" d="m72.404,71.729s2.976-4.871,10.002-2.889c.89.251,1.463,1.136,1.304,2.047-.27,1.555-1.712,3.739-7.462,4.392"/>
      <ellipse class="cls-5" cx="78.09" cy="71.75" rx="2.147" ry=".92" transform="translate(-18.635 28.272) rotate(-18.373)"/>
    </g>
  </g>
</svg>